PathFileType	3	(X/Y/Z)	D:\Vicon Setup\UG\Test1\New Session\NewSession09.trc
DataRate	CameraRate	NumFrames	NumMarkers	Units	OrigDataRate	OrigDataStartFrame	OrigNumFrames
100.0	100.0	5	27	mm	100.0	570	911	
Frame#	Time	Sternum			LShoulder			RShoulder			LASIS			RASIS			RPSIS			LPSIS			RKneeLateral			RKneeMedial			RFibulaHead			RMidShank			RAnkleLateral			RAnkleMedial			RHeel			RMT5			RMT2			RToe			LKneeLateral			LKneeMedial			LFibulaHead			LMidShank			LAnkleLateral			LAnkleMedial			LHeel			LMT5			LMT2			LToe			
		X1	Y1	Z1	X2	Y2	Z2	X3	Y3	Z3	X4	Y4	Z4	X5	Y5	Z5	X6	Y6	Z6	X7	Y7	Z7	X8	Y8	Z8	X9	Y9	Z9	X10	Y10	Z10	X11	Y11	Z11	X12	Y12	Z12	X13	Y13	Z13	X14	Y14	Z14	X15	Y15	Z15	X16	Y16	Z16	X17	Y17	Z17	X18	Y18	Z18	X19	Y19	Z19	X20	Y20	Z20	X21	Y21	Z21	X22	Y22	Z22	X23	Y23	Z23	X24	Y24	Z24	X25	Y25	Z25	X26	Y26	Z26	X27	Y27	Z27	
570	5.69	258.89038	1385.5983	-1601.9633	74.502632	1440.4401	-1489.5569	446.19455	1411.5787	-1518.5369	135.6972	996.23999	-1603.3837	395.62457	1004.2045	-1599.764	322.34412	1017.9888	-1425.5692	192.08574	1015.6252	-1421.4557	445.77689	538.48108	-1480.1902	321.57874	497.84708	-1525.8136	456.33554	458.17554	-1471.4824	403.30777	287.25839	-1518.1635	474.87772	92.898491	-1459.8044	404.65207	119.0845	-1522.2273	405.68811	61.294571	-1404.6112	553.75958	32.45694	-1596.7921	489.12292	63.095623	-1616.3192	495.07617	44.297886	-1669.1813	87.502975	522.24847	-1502.0428	217.37573	494.29681	-1525.968	82.440407	461.5712	-1482.474	143.78217	300.23077	-1518.5195	79.129982	100.53838	-1449.0166	156.71196	114.04411	-1499.123	145.5992	63.413456	-1386.4326	13.518513	43.901718	-1572.7964	72.677834	61.641441	-1600.8733	58.804928	41.956291	-1660.4918
571	5.7	258.92538	1385.6456	-1601.9078	74.555672	1440.4791	-1489.4768	446.23935	1411.5509	-1518.4479	135.67499	996.28705	-1603.2992	395.60504	1004.2386	-1599.7123	322.36447	1017.9742	-1425.5094	192.10921	1015.6371	-1421.3748	445.77457	538.49457	-1480.1578	321.56088	497.8699	-1525.7736	456.32986	458.18231	-1471.4568	403.28366	287.30188	-1518.1646	474.88226	92.912987	-1459.7771	404.63541	119.10285	-1522.2076	405.70041	61.295029	-1404.6046	553.74347	32.473	-1596.7864	489.11066	63.113823	-1616.3063	495.06628	44.322933	-1669.175	87.506004	522.25586	-1501.9921	217.35298	494.32758	-1525.9296	82.442123	461.57132	-1482.4231	143.75273	300.26544	-1518.5132	79.13662	100.54224	-1449.011	156.69398	114.07114	-1499.1199	145.58833	63.426956	-1386.4298	13.50345	43.925415	-1572.7898	72.659195	61.675159	-1600.8683	58.793415	41.987541	-1660.4827
572	5.71	258.96146	1385.677	-1601.8407	74.599045	1440.5133	-1489.4087	446.28195	1411.5248	-1518.3618	135.65852	996.32312	-1603.21	395.59006	1004.2609	-1599.6577	322.38156	1017.9694	-1425.443	192.1279	1015.654	-1421.2876	445.77548	538.50525	-1480.1304	321.54904	497.88394	-1525.73	456.32645	458.18799	-1471.4371	403.26862	287.32764	-1518.1569	474.88464	92.925385	-1459.7524	404.62592	119.10897	-1522.1835	405.70514	61.298233	-1404.5974	553.72742	32.487652	-1596.7841	489.10016	63.135983	-1616.2992	495.05563	44.349892	-1669.1738	87.505333	522.2644	-1501.9369	217.33008	494.36002	-1525.8966	82.439507	461.57391	-1482.3687	143.7305	300.28824	-1518.5012	79.134544	100.54826	-1449.0096	156.67554	114.09988	-1499.1237	145.57153	63.443661	-1386.4237	13.493759	43.940018	-1572.7845	72.64666	61.696907	-1600.8621	58.782127	42.016315	-1660.4769
573	5.72	259.0007	1385.6881	-1601.7639	74.637497	1440.5393	-1489.3568	446.32834	1411.4976	-1518.282	135.65057	996.34448	-1603.1133	395.58224	1004.2661	-1599.6011	322.39694	1017.9738	-1425.3698	192.14261	1015.6722	-1421.1932	445.78046	538.5094	-1480.1097	321.54648	497.88531	-1525.688	456.32782	458.18896	-1471.4255	403.26526	287.32999	-1518.1411	474.88638	92.931778	-1459.7338	404.62537	119.10201	-1522.1588	405.70251	61.301037	-1404.5896	553.71411	32.497646	-1596.7856	489.09384	63.159325	-1616.2999	495.04568	44.375034	-1669.1777	87.500793	522.27179	-1501.8766	217.3102	494.38794	-1525.8687	82.434074	461.57739	-1482.3129	143.7188	300.29483	-1518.4796	79.122612	100.55475	-1449.0125	156.65921	114.12359	-1499.1328	145.55228	63.458733	-1386.416	13.491034	43.941471	-1572.7816	72.641579	61.703083	-1600.855	58.772018	42.036472	-1660.4762
574	5.73	259.04459	1385.6779	-1601.6791	74.677933	1440.5554	-1489.3247	446.3819	1411.4674	-1518.2081	135.65227	996.3501	-1603.0076	395.58347	1004.2509	-1599.5417	322.41354	1017.9851	-1425.2911	192.15666	1015.6891	-1421.0933	445.78983	538.50525	-1480.0959	321.55493	497.87247	-1525.6498	456.33524	458.18246	-1471.42	403.27301	287.3092	-1518.119	474.88791	92.929482	-1459.7242	404.63312	119.08343	-1522.1376	405.69421	61.300751	-1404.5824	553.70599	32.500664	-1596.7902	489.09409	63.183807	-1616.3105	495.03772	44.393089	-1669.1862	87.493538	522.27667	-1501.8101	217.29764	494.40521	-1525.8425	82.428535	461.57971	-1482.2568	143.71895	300.28439	-1518.4458	79.102829	100.55968	-1449.0183	156.64755	114.13616	-1499.1433	145.53537	63.466564	-1386.4089	13.49464	43.929218	-1572.782	72.643753	61.693382	-1600.8486	58.764229	42.043484	-1660.4799
